<svg width="20" height="20" viewBox="0 0 20 20" fill="none" xmlns="http://www.w3.org/2000/svg">
<path d="M4.16667 8.33331C3.25 8.33331 2.5 9.08331 2.5 9.99998C2.5 10.9166 3.25 11.6666 4.16667 11.6666C5.08333 11.6666 5.83333 10.9166 5.83333 9.99998C5.83333 9.08331 5.08333 8.33331 4.16667 8.33331Z" stroke="#2C2C2C"/>
<path d="M15.8337 8.33325C14.917 8.33325 14.167 9.08325 14.167 9.99992C14.167 10.9166 14.917 11.6666 15.8337 11.6666C16.7503 11.6666 17.5003 10.9166 17.5003 9.99992C17.5003 9.08325 16.7503 8.33325 15.8337 8.33325Z" stroke="#2C2C2C"/>
<path d="M9.99967 8.33325C9.08301 8.33325 8.33301 9.08325 8.33301 9.99992C8.33301 10.9166 9.08301 11.6666 9.99967 11.6666C10.9163 11.6666 11.6663 10.9166 11.6663 9.99992C11.6663 9.08325 10.9163 8.33325 9.99967 8.33325Z" stroke="#2C2C2C"/>
</svg>
